<svg xmlns="http://www.w3.org/2000/svg" width="531.2" height="280" viewBox="0 0 531.2 280" font-family="ui-monospace,SFMono-Regular,Menlo,Monaco,Consolas,monospace" font-size="13" fill="#e6edf3" shape-rendering="crispEdges">
<rect width="531.2" height="280" rx="8" fill="#0d1117"/>
<text x="195.4" y="24.5" textLength="132.6" lengthAdjust="spacingAndGlyphs" xml:space="preserve">Ingest and commit</text>
<text x="187.6" y="40.5" fill="#00cdcd" textLength="15.6" lengthAdjust="spacingAndGlyphs" xml:space="preserve">──</text>
<text x="211" y="40.5" textLength="46.8" lengthAdjust="spacingAndGlyphs" xml:space="preserve">ingest</text>
<text x="273.4" y="40.5" fill="#cdcd00" textLength="15.6" lengthAdjust="spacingAndGlyphs" xml:space="preserve">──</text>
<text x="296.8" y="40.5" textLength="46.8" lengthAdjust="spacingAndGlyphs" xml:space="preserve">commit</text>
<rect x="406" y="52" width="109.2" height="8" fill="#00cdcd"/>
<text x="16" y="56.5" textLength="62.4" lengthAdjust="spacingAndGlyphs" xml:space="preserve">2.8 ms ┤</text>
<rect x="331.9" y="68" width="3.9" height="8" fill="#00cdcd"/>
<rect x="335.8" y="68" width="23.4" height="8" fill="#00cdcd"/>
<rect x="359.2" y="68" width="3.9" height="8" fill="#00cdcd"/>
<rect x="363.1" y="60" width="3.9" height="8" fill="#00cdcd"/>
<rect x="367" y="60" width="39" height="8" fill="#00cdcd"/>
<text x="70.6" y="72.5" textLength="7.8" lengthAdjust="spacingAndGlyphs" xml:space="preserve">│</text>
<rect x="296.8" y="84" width="15.6" height="8" fill="#00cdcd"/>
<rect x="312.4" y="84" width="3.9" height="8" fill="#00cdcd"/>
<rect x="316.3" y="76" width="3.9" height="8" fill="#00cdcd"/>
<rect x="320.2" y="76" width="7.8" height="8" fill="#00cdcd"/>
<rect x="328" y="76" width="3.9" height="8" fill="#00cdcd"/>
<text x="16" y="88.5" textLength="62.4" lengthAdjust="spacingAndGlyphs" xml:space="preserve">2.4 ms ┤</text>
<rect x="261.7" y="100" width="3.9" height="8" fill="#00cdcd"/>
<rect x="265.6" y="100" width="7.8" height="8" fill="#00cdcd"/>
<rect x="273.4" y="100" width="3.9" height="8" fill="#00cdcd"/>
<rect x="277.3" y="92" width="3.9" height="8" fill="#00cdcd"/>
<rect x="281.2" y="92" width="15.6" height="8" fill="#00cdcd"/>
<text x="70.6" y="104.5" textLength="7.8" lengthAdjust="spacingAndGlyphs" xml:space="preserve">│</text>
<rect x="78.4" y="108" width="39" height="8" fill="#00cdcd"/>
<rect x="117.4" y="108" width="3.9" height="8" fill="#00cdcd"/>
<rect x="121.3" y="116" width="3.9" height="8" fill="#00cdcd"/>
<rect x="125.2" y="116" width="78" height="8" fill="#00cdcd"/>
<rect x="203.2" y="116" width="3.9" height="8" fill="#00cdcd"/>
<rect x="207.1" y="108" width="3.9" height="8" fill="#00cdcd"/>
<rect x="211" y="108" width="46.8" height="8" fill="#00cdcd"/>
<rect x="257.8" y="108" width="3.9" height="8" fill="#00cdcd"/>
<text x="70.6" y="120.5" textLength="7.8" lengthAdjust="spacingAndGlyphs" xml:space="preserve">│</text>
<text x="16" y="136.5" textLength="62.4" lengthAdjust="spacingAndGlyphs" xml:space="preserve">2.0 ms ┤</text>
<text x="70.6" y="152.5" textLength="7.8" lengthAdjust="spacingAndGlyphs" xml:space="preserve">│</text>
<text x="16" y="168.5" textLength="62.4" lengthAdjust="spacingAndGlyphs" xml:space="preserve">1.6 ms ┤</text>
<rect x="242.2" y="180" width="31.2" height="8" fill="#cdcd00"/>
<text x="70.6" y="184.5" textLength="7.8" lengthAdjust="spacingAndGlyphs" xml:space="preserve">│</text>
<rect x="199.3" y="196" width="3.9" height="8" fill="#cdcd00"/>
<rect x="203.2" y="196" width="15.6" height="8" fill="#cdcd00"/>
<rect x="218.8" y="188" width="23.4" height="8" fill="#cdcd00"/>
<rect x="273.4" y="188" width="46.8" height="8" fill="#cdcd00"/>
<rect x="320.2" y="196" width="62.4" height="8" fill="#cdcd00"/>
<rect x="382.6" y="188" width="132.6" height="8" fill="#cdcd00"/>
<text x="70.6" y="200.5" textLength="7.8" lengthAdjust="spacingAndGlyphs" xml:space="preserve">│</text>
<rect x="78.4" y="204" width="39" height="8" fill="#cdcd00"/>
<rect x="117.4" y="204" width="3.9" height="8" fill="#cdcd00"/>
<rect x="121.3" y="212" width="3.9" height="8" fill="#cdcd00"/>
<rect x="125.2" y="212" width="46.8" height="8" fill="#cdcd00"/>
<rect x="172" y="212" width="3.9" height="8" fill="#cdcd00"/>
<rect x="175.9" y="204" width="3.9" height="8" fill="#cdcd00"/>
<rect x="179.8" y="204" width="15.6" height="8" fill="#cdcd00"/>
<rect x="195.4" y="204" width="3.9" height="8" fill="#cdcd00"/>
<text x="16" y="216.5" textLength="62.4" lengthAdjust="spacingAndGlyphs" xml:space="preserve">1.2 ms ┤</text>
<text x="70.6" y="232.5" textLength="444.6" lengthAdjust="spacingAndGlyphs" xml:space="preserve">└┬──────────┬──────────┬──────────┬──────────┬──────────┬</text>
<text x="70.6" y="248.5" textLength="444.6" lengthAdjust="spacingAndGlyphs" xml:space="preserve">0.1        0.2        0.3        0.4        0.5       0.6</text>
<text x="273.4" y="264.5" textLength="54.6" lengthAdjust="spacingAndGlyphs" xml:space="preserve">release</text>
</svg>
